<?xml version="1.0" standalone="no"?><!DOCTYPE svg PUBLIC "-//W3C//DTD SVG 1.1//EN" "http://www.w3.org/Graphics/SVG/1.1/DTD/svg11.dtd"><svg t="1772673605407" class="icon" viewBox="0 0 1024 1024" version="1.1" xmlns="http://www.w3.org/2000/svg" p-id="35615" xmlns:xlink="http://www.w3.org/1999/xlink" width="200" height="200"><path d="M805.075862 35.310345H407.834483c-25.423448 0-47.668966 20.656552-47.668966 47.668965v158.896552c0 27.012414-20.656552 47.668966-47.668965 47.668966h-158.896552c-27.012414 0-47.668966 20.656552-47.668966 47.668965v556.137931C105.931034 945.787586 148.833103 988.689655 201.268966 988.689655h603.806896c52.435862 0 95.337931-42.902069 95.337931-95.337931V130.648276C900.413793 78.212414 857.511724 35.310345 805.075862 35.310345z m-103.282759 715.034483h-397.241379c-12.711724 0-23.834483-11.122759-23.834483-23.834483 0-12.711724 11.122759-23.834483 23.834483-23.834483h397.241379c12.711724 0 23.834483 11.122759 23.834483 23.834483 0 12.711724-11.122759 23.834483-23.834483 23.834483z m0-158.896552h-397.241379c-12.711724 0-23.834483-11.122759-23.834483-23.834483 0-12.711724 11.122759-23.834483 23.834483-23.834483h397.241379c12.711724 0 23.834483 11.122759 23.834483 23.834483 0 12.711724-11.122759 23.834483-23.834483 23.834483z m0-158.896552h-254.234482c-12.711724 0-23.834483-11.122759-23.834483-23.834483 0-12.711724 11.122759-23.834483 23.834483-23.834482h254.234482c12.711724 0 23.834483 11.122759 23.834483 23.834482 0 12.711724-11.122759 23.834483-23.834483 23.834483zM140.888276 243.464828h122.350345c27.012414 0 47.668966-20.656552 47.668965-47.668966V65.50069c0-17.478621-9.533793-22.245517-22.245517-9.533793l-158.896552 163.663448c-11.122759 12.711724-6.355862 23.834483 11.122759 23.834483z" fill="#E2EDF9" p-id="35616"></path><path d="M529.655172 282.482759c126.993655 0 229.517241 102.523586 229.517242 229.517241s-102.523586 229.517241-229.517242 229.517241-229.517241-102.523586-229.517241-229.517241 102.523586-229.517241 229.517241-229.517241z" fill="#0091FF" fill-opacity=".596" p-id="35617"></path><path d="M423.724138 494.344828h211.862069c10.593103 0 17.655172 7.062069 17.655172 17.655172s-7.062069 17.655172-17.655172 17.655172H423.724138c-10.593103 0-17.655172-7.062069-17.655172-17.655172s7.062069-17.655172 17.655172-17.655172z" fill="#FFFFFF" p-id="35618"></path><path d="M547.310345 406.068966v211.862068c0 10.593103-7.062069 17.655172-17.655173 17.655173s-17.655172-7.062069-17.655172-17.655173V406.068966c0-10.593103 7.062069-17.655172 17.655172-17.655173s17.655172 7.062069 17.655173 17.655173z" fill="#FFFFFF" p-id="35619"></path></svg>