<?xml version="1.0" standalone="no"?><!DOCTYPE svg PUBLIC "-//W3C//DTD SVG 1.1//EN" "http://www.w3.org/Graphics/SVG/1.1/DTD/svg11.dtd"><svg t="1772401262571" class="icon" viewBox="0 0 1024 1024" version="1.1" xmlns="http://www.w3.org/2000/svg" p-id="97498" xmlns:xlink="http://www.w3.org/1999/xlink" width="200" height="200"><path d="M76.8 102.4h614.4v819.2H76.8V102.4z m102.4 102.4h230.4v51.2H179.2V204.8z m409.6 179.2H179.2v51.2h409.6v-51.2zM179.2 486.4h256v51.2H179.2v-51.2z m332.8 281.6H179.2v51.2h332.8v-51.2z" fill="#FFCFCF" p-id="97499"></path><path d="M878.0288 474.5216L857.8048 870.4H534.3488l-20.224-395.8784h363.904zM529.28 281.6l151.9616 54.1696 13.824-37.2224 113.9968 40.6272-13.824 37.1968L947.2 430.5408l-17.28 46.4896L512 328.0896 529.28 281.6z" fill="#EC5F56" p-id="97500"></path><path d="M570.88 539.6992L611.0464 537.6l14.7456 279.5008-40.192 2.0992-14.72-279.5008z m107.904-1.2544h40.192v279.9104h-40.192V538.4448z m148.096 1.2544L786.7136 537.6l-14.7456 279.5008 40.192 2.0992 14.72-279.5008z" fill="#FFFFFF" p-id="97501"></path></svg>