<?xml version="1.0" standalone="no"?><!DOCTYPE svg PUBLIC "-//W3C//DTD SVG 1.1//EN" "http://www.w3.org/Graphics/SVG/1.1/DTD/svg11.dtd"><svg t="1772400603052" class="icon" viewBox="0 0 1066 1024" version="1.1" xmlns="http://www.w3.org/2000/svg" p-id="15682" xmlns:xlink="http://www.w3.org/1999/xlink" width="208.203125" height="200"><path d="M17.655172 750.697931L129.235862 350.984828C139.122759 314.262069 172.314483 288.838621 209.743448 288.838621h645.473104c37.428966 0 70.62069 24.717241 80.507586 61.44l112.286896 404.656551" fill="#FFFFFF" p-id="15683"></path><path d="M1048.011034 754.935172l-1016.937931-3.531034 116.524138-374.289655c9.18069-34.604138 42.372414-58.615172 79.80138-58.615173h630.642758c36.722759 0 69.208276 23.304828 79.095173 57.202759l110.874482 379.233103z" fill="#ADD2FF" p-id="15684"></path><path d="M798.013793 318.49931c-8.474483 81.213793-54.377931 151.834483-119.348965 194.913104-42.372414 27.542069-92.513103 43.784828-146.891035 43.784827-138.416552 0-251.409655-104.518621-266.24-238.697931H798.013793z" fill="#91C4FF" p-id="15685"></path><path d="M1051.542069 928.662069c0 43.078621-34.604138 77.682759-77.682759 77.682759H90.394483c-43.078621 0-77.682759-34.604138-77.682759-77.682759V778.946207c0-43.078621 34.604138-77.682759 77.682759-77.682759h883.464827c43.078621 0 77.682759 34.604138 77.682759 77.682759v149.715862z" fill="#FFFFFF" p-id="15686"></path><path d="M1051.542069 933.605517c0 40.253793-32.485517 72.73931-72.73931 72.739311H110.874483c-40.253793 0-72.73931-32.485517-72.739311-72.739311V805.782069c0-40.253793 32.485517-72.73931 72.739311-72.73931h867.928276c40.253793 0 72.73931 32.485517 72.73931 72.73931v127.823448z" fill="#D4E7FF" p-id="15687"></path><path d="M896.882759 853.804138m-71.326897 0a71.326897 71.326897 0 1 0 142.653793 0 71.326897 71.326897 0 1 0-142.653793 0Z" fill="#FFFFFF" p-id="15688"></path><path d="M667.365517 465.390345c-38.841379 25.423448-85.451034 40.253793-135.591724 40.253793-136.297931 0-247.172414-110.168276-247.172414-247.172414s110.168276-247.172414 247.172414-247.172414 247.172414 110.168276 247.172414 247.172414c0 86.863448-44.491034 163.133793-111.58069 206.918621" fill="#6BADFF" p-id="15689"></path><path d="M532.48 399.713103c-9.18069 0-17.655172-3.531034-24.011034-9.886896L435.729655 317.086897c-6.355862-6.355862-9.886897-14.830345-9.886896-24.011035 0-9.18069 3.531034-17.655172 9.886896-24.011034 6.355862-6.355862 14.830345-9.886897 24.011035-9.886897 9.18069 0 17.655172 3.531034 24.011034 9.886897l15.536552 15.536551V152.54069c0-18.361379 14.830345-33.897931 33.897931-33.897931 19.067586 0 33.897931 14.830345 33.897931 33.897931v132.060689l15.536552-15.536551c6.355862-6.355862 14.830345-9.886897 24.011034-9.886897 9.18069 0 17.655172 3.531034 24.011035 9.886897 6.355862 6.355862 9.886897 14.830345 9.886896 24.011034 0 9.18069-3.531034 17.655172-9.886896 24.011035L557.903448 389.826207c-8.474483 6.355862-16.948966 9.886897-25.423448 9.886896z" fill="#FFFFFF" p-id="15690"></path><path d="M532.48 128.529655c12.711724 0 23.304828 10.593103 23.304828 23.304828v158.190345l33.191724-33.191725c4.237241-4.237241 10.593103-7.062069 16.242758-7.062069 5.649655 0 12.005517 2.118621 16.242759 7.062069 4.237241 4.237241 7.062069 10.593103 7.062069 16.242759 0 5.649655-2.118621 12.005517-7.062069 16.242759L548.722759 382.057931c-4.237241 4.237241-9.886897 7.062069-16.242759 7.062069-6.355862 0-12.005517-2.118621-16.242759-7.062069L443.497931 309.318621c-9.18069-9.18069-9.18069-24.011034 0-32.485518 4.237241-4.237241 10.593103-7.062069 16.242759-7.062069 5.649655 0 12.005517 2.118621 16.242758 7.062069l33.191724 33.191725V151.834483c0-12.711724 10.593103-23.304828 23.304828-23.304828z m0-21.186207c-24.717241 0-44.491034 19.773793-44.491034 44.491035v106.637241c-7.768276-7.062069-17.655172-10.593103-28.248276-10.593103-12.005517 0-23.304828 4.943448-31.073104 12.711724-16.948966 16.948966-16.948966 45.197241 0 62.852414L501.406897 396.182069c8.474483 8.474483 19.773793 12.711724 31.073103 12.711724 12.005517 0 23.304828-4.943448 31.073103-12.711724l72.739311-72.73931c8.474483-8.474483 12.711724-19.773793 12.711724-31.073104 0-12.005517-4.943448-23.304828-12.711724-31.073103-8.474483-8.474483-19.773793-12.711724-31.073104-12.711724-10.593103 0-20.48 3.531034-28.248276 10.593103V152.54069c-0.706207-24.717241-20.48-45.197241-44.491034-45.197242z" fill="#1676EE" p-id="15691"></path></svg>