<?xml version="1.0" standalone="no"?><!DOCTYPE svg PUBLIC "-//W3C//DTD SVG 1.1//EN" "http://www.w3.org/Graphics/SVG/1.1/DTD/svg11.dtd"><svg t="1772675011430" class="icon" viewBox="0 0 1024 1024" version="1.1" xmlns="http://www.w3.org/2000/svg" p-id="73925" xmlns:xlink="http://www.w3.org/1999/xlink" width="200" height="200"><path d="M806.989264 43.481077c82.869816 0 140.162529 63.431217 140.162529 133.512482v203.593746l-477.268757 490.057309v127.373977H225.877465A141.356127 141.356127 0 0 1 85.714936 857.856062V183.643605A141.356127 141.356127 0 0 1 225.877465 43.481077H806.989264zM374.224667 527.399881H232.01597a34.273319 34.273319 0 0 0 0 68.546638h142.208697a34.273319 34.273319 0 0 0 0-68.546638z m158.066502-158.066502H232.01597a33.761777 33.761777 0 0 0-30.692525 16.880889 32.82395 32.82395 0 0 0 0 34.784861 34.955375 34.955375 0 0 0 30.692525 16.880889h300.275199a33.761777 33.761777 0 0 0 30.692525-16.880889 32.82395 32.82395 0 0 0 0-34.784861 33.761777 33.761777 0 0 0-30.692525-16.880889z m105.377668-158.066501H232.01597a34.784861 34.784861 0 0 0-29.66944 16.880888 34.188062 34.188062 0 0 0 0 34.273319 33.67652 33.67652 0 0 0 29.66944 16.880889h405.652867c18.927057 0 34.273319-15.346262 34.273319-34.273319a34.102805 34.102805 0 0 0-34.273319-33.761777z" fill="#4279F4" opacity=".4" p-id="73926"></path><path d="M860.18964 571.3925l101.796873 101.796873 44.504161-51.154208a21.655281 21.655281 0 0 0 6.138505-15.346262v-3.580795c0-6.138505 0-12.788552-6.138505-18.927057l-63.431217-57.292712c-6.138505-6.138505-12.788552-6.138505-18.927057-6.138505-6.650047 0-12.788552 0-19.438599 6.138505l-44.504161 44.504161zM535.871964 998.018591h101.796873l292.602068-292.602067L828.474031 603.61965 535.871964 896.221718v101.796873z" fill="#4279F4" p-id="73927"></path></svg>