<?xml version="1.0" standalone="no"?><!DOCTYPE svg PUBLIC "-//W3C//DTD SVG 1.1//EN" "http://www.w3.org/Graphics/SVG/1.1/DTD/svg11.dtd"><svg t="1772406138689" class="icon" viewBox="0 0 1024 1024" version="1.1" xmlns="http://www.w3.org/2000/svg" p-id="112623" xmlns:xlink="http://www.w3.org/1999/xlink" width="200" height="200"><path d="M807.1 213.9v82.9h-0.1v580c0 30.5-24.8 55.2-55.2 55.2H227c-30.5 0-55.2-24.8-55.2-55.2V264.9h0.1v-51c0-30.5 24.8-55.2 55.2-55.2h524.8c30.4 0 55.2 24.7 55.2 55.2z" fill="#FEF8E6" p-id="112624"></path><path d="M702.4 474.4h-426c-12.1 0-22.1-9.9-22.1-22.1 0-12.1 9.9-22.1 22.1-22.1h426c12.1 0 22.1 9.9 22.1 22.1 0 12.1-10 22.1-22.1 22.1zM702.4 593.2h-426c-12.1 0-22.1-9.9-22.1-22.1 0-12.1 9.9-22.1 22.1-22.1h426c12.1 0 22.1 9.9 22.1 22.1 0 12.2-10 22.1-22.1 22.1zM643.2 712.1H276.4c-12.1 0-22.1-9.9-22.1-22.1 0-12.1 9.9-22.1 22.1-22.1h366.8c12.1 0 22.1 9.9 22.1 22.1 0 12.2-10 22.1-22.1 22.1zM465.7 831H276.4c-12.1 0-22.1-9.9-22.1-22.1 0-12.1 9.9-22.1 22.1-22.1h189.3c12.1 0 22.1 9.9 22.1 22.1-0.1 12.2-10 22.1-22.1 22.1z" fill="#A6B7BF" p-id="112625"></path><path d="M313.8 174.9c0 15.3 12.3 27.6 27.6 27.6s27.6-12.3 27.6-27.6v-55.2c0-15.3-12.3-27.6-27.6-27.6s-27.6 12.3-27.6 27.6v55.2zM461.8 174.9c0 15.3 12.3 27.6 27.6 27.6s27.6-12.3 27.6-27.6v-55.2c0-15.3-12.3-27.6-27.6-27.6s-27.6 12.3-27.6 27.6v55.2zM609.7 174.9c0 15.3 12.3 27.6 27.6 27.6s27.6-12.3 27.6-27.6v-55.2c0-15.3-12.3-27.6-27.6-27.6s-27.6 12.3-27.6 27.6v55.2z" fill="#50E6CC" p-id="112626"></path><path d="M735.9 374.1h-493c-6.6 0-12-5.4-12-12V257.9c0-6.6 5.4-12 12-12h493c6.6 0 12 5.4 12 12v104.2c0 6.6-5.4 12-12 12z" fill="#8ADCFF" p-id="112627"></path><path d="M520.202 678.382l207.251-207.25 119.005 119.004-207.25 207.251z" fill="#8ADCFF" p-id="112628"></path><path d="M876.4 560.1l-119-119 19.2-19.2c20.5-20.5 53.7-20.5 74.2 0l44.9 44.9c20.5 20.5 20.5 53.7 0 74.2l-19.3 19.1z" fill="#F77490" p-id="112629"></path><path d="M727.412 471.035l29.981-29.98 119.005 119.004-29.98 29.981zM639.2 797.3L546 816.5l-56.6 11.6 11.6-56.6 19.2-93.2z" fill="#FDF17F" p-id="112630"></path><path d="M546 816.5l-56.6 11.6 11.6-56.6z" fill="#889CA9" p-id="112631"></path><path d="M540.755 698.856l207.25-207.25 26.729 26.728-207.251 207.25z" fill="#46CDFB" p-id="112632"></path><path d="M591.941 750.094l207.251-207.25 26.8 26.798L618.74 776.893z" fill="#15B7FF" p-id="112633"></path><path d="M461.8 168.7H369c-5.5 0-10-4.5-10-10s4.5-10 10-10h92.8c5.5 0 10 4.5 10 10s-4.5 10-10 10zM807 417c-5.5 0-10-4.5-10-10V296.8c0-0.5 0-1 0.1-1.4v-81.5c0-24.9-20.3-45.2-45.2-45.2h-87c-5.5 0-10-4.5-10-10s4.5-10 10-10h87c36 0 65.2 29.2 65.2 65.2v82.9c0 0.5 0 1-0.1 1.4V407c0 5.5-4.5 10-10 10z m0.1-120.2zM751.8 942H227c-36 0-65.2-29.2-65.2-65.2V264.9c0-0.5 0-1 0.1-1.4v-49.6c0-36 29.2-65.2 65.2-65.2h86.7c5.5 0 10 4.5 10 10s-4.5 10-10 10h-86.7c-24.9 0-45.2 20.3-45.2 45.2v51c0 0.5 0 1-0.1 1.4v610.5c0 24.9 20.3 45.2 45.2 45.2h524.8c24.9 0 45.2-20.3 45.2-45.2V629.6c0-5.5 4.5-10 10-10s10 4.5 10 10v247.2c0 36-29.2 65.2-65.2 65.2zM609.7 168.7H517c-5.5 0-10-4.5-10-10s4.5-10 10-10h92.7c5.5 0 10 4.5 10 10s-4.5 10-10 10z" fill="#F7D59F" p-id="112634"></path><path d="M702.4 484.4h-426c-17.7 0-32.1-14.4-32.1-32.1 0-17.7 14.4-32.1 32.1-32.1h426c17.7 0 32.1 14.4 32.1 32.1 0 17.7-14.4 32.1-32.1 32.1z m-426-44.2c-6.7 0-12.1 5.4-12.1 12.1s5.4 12.1 12.1 12.1h426c6.6 0 12.1-5.5 12.1-12.1 0-6.7-5.4-12.1-12.1-12.1h-426zM605.4 603.2h-329c-17.7 0-32.1-14.4-32.1-32.1 0-8.5 3.3-16.6 9.4-22.7 6.1-6.1 14.1-9.4 22.7-9.4h373.2c5.5 0 10 4.5 10 10s-4.5 10-10 10H276.4c-3.2 0-6.2 1.3-8.5 3.6s-3.6 5.3-3.6 8.5c0 6.7 5.4 12.1 12.1 12.1h329c5.5 0 10 4.5 10 10s-4.5 10-10 10zM513.2 722.1H276.4c-17.7 0-32.1-14.4-32.1-32.1 0-8.5 3.3-16.6 9.4-22.7 6.1-6.1 14.1-9.4 22.7-9.4h254.3c5.5 0 10 4.5 10 10s-4.5 10-10 10H276.4c-3.2 0-6.2 1.3-8.5 3.6s-3.6 5.3-3.6 8.5c0 6.7 5.4 12.1 12.1 12.1h236.8c5.5 0 10 4.5 10 10s-4.4 10-10 10zM465.7 841H276.4c-17.7 0-32.1-14.4-32.1-32.1s14.4-32.1 32.1-32.1h189.3c17.7 0 32.1 14.4 32.1 32.1-0.1 17.7-14.5 32.1-32.1 32.1z m-189.3-44.2c-6.7 0-12.1 5.4-12.1 12.1s5.4 12.1 12.1 12.1h189.3c6.6 0 12-5.5 12.1-12.2 0-6.6-5.4-12-12.1-12H276.4z" fill="#6A7D84" p-id="112635"></path><path d="M735.9 384.1h-493c-12.1 0-22-9.9-22-22V257.9c0-12.1 9.9-22 22-22h493c12.1 0 22 9.9 22 22v104.2c0 12.1-9.9 22-22 22z m-493-128.2c-1.1 0-2 0.9-2 2v104.2c0 1.1 0.9 2 2 2h493c1.1 0 2-0.9 2-2V257.9c0-1.1-0.9-2-2-2h-493z" fill="#00A4FF" p-id="112636"></path><path d="M876.4 570.1c-2.6 0-5.1-1-7.1-2.9l-119-119c-3.9-3.9-3.9-10.2 0-14.1l19.2-19.2c24.4-24.4 64-24.4 88.3 0l44.9 44.9c24.4 24.4 24.4 64 0 88.3l-19.3 19.1c-1.9 1.9-4.5 2.9-7 2.9z m-104.9-129L876.4 546l12.2-12.1c16.5-16.5 16.5-43.5 0-60L843.7 429c-16.6-16.6-43.5-16.6-60.1 0l-12.1 12.1z" fill="#D30032" p-id="112637"></path><path d="M639.2 807.4c-2.6 0-5.1-1-7.1-2.9l-119-119c-3.9-3.9-3.9-10.2 0-14.1l207.3-207.3c3.9-3.9 10.2-3.9 14.1 0l119 119c3.9 3.9 3.9 10.2 0 14.1L646.3 804.5c-1.9 1.9-4.5 2.9-7.1 2.9z m-104.8-129l104.9 104.9 193.1-193.1-104.9-104.9-193.1 193.1z" fill="#00A4FF" p-id="112638"></path><path d="M489.4 838.1c-2.6 0-5.2-1-7.1-2.9a9.91 9.91 0 0 1-2.7-9.1l11.6-56.6 19.2-93.2c0.7-3.6 3.4-6.5 6.9-7.6 3.5-1.1 7.3-0.1 9.9 2.5l119 119c2.6 2.6 3.6 6.4 2.5 9.9s-4 6.2-7.6 6.9L548 826.3l-56.6 11.6c-0.7 0.1-1.3 0.2-2 0.2z m36.8-139.6l-15.5 75-8.6 41.7 41.8-8.6 75-15.5-92.7-92.6z" fill="#FFA300" p-id="112639"></path><path d="M489.4 838.1c-2.6 0-5.2-1-7.1-2.9a9.91 9.91 0 0 1-2.7-9.1l11.6-56.6c0.7-3.6 3.4-6.5 6.9-7.6 3.5-1.1 7.3-0.1 9.9 2.5l45 45c2.6 2.6 3.6 6.4 2.5 9.9s-4 6.2-7.6 6.9l-56.6 11.6c-0.6 0.2-1.2 0.3-1.9 0.3z m17.7-46.4l-4.8 23.6 23.6-4.8-18.8-18.8z" fill="#6A7D84" p-id="112640"></path><path d="M846.4 600c-2.6 0-5.1-1-7.1-2.9l-119-119c-3.9-3.9-3.9-10.2 0-14.1l30-30c3.9-3.9 10.2-3.9 14.1 0l119 119c3.9 3.9 3.9 10.2 0 14.1l-30 30c-1.9 1.9-4.4 2.9-7 2.9zM741.6 471l104.9 104.9 15.8-15.8-104.9-104.9-15.8 15.8z" fill="#FFA300" p-id="112641"></path><path d="M341.4 212.5c-20.7 0-37.6-16.9-37.6-37.6v-55.2c0-20.7 16.9-37.6 37.6-37.6S379 99 379 119.7v55.2c0 20.7-16.9 37.6-37.6 37.6z m0-110.4c-9.7 0-17.6 7.9-17.6 17.6v55.2c0 9.7 7.9 17.6 17.6 17.6s17.6-7.9 17.6-17.6v-55.2c0-9.7-7.9-17.6-17.6-17.6zM489.4 212.5c-20.7 0-37.6-16.9-37.6-37.6v-55.2c0-20.7 16.9-37.6 37.6-37.6S527 99 527 119.7v55.2c0 20.7-16.9 37.6-37.6 37.6z m0-110.4c-9.7 0-17.6 7.9-17.6 17.6v55.2c0 9.7 7.9 17.6 17.6 17.6s17.6-7.9 17.6-17.6v-55.2c0-9.7-7.9-17.6-17.6-17.6zM637.3 212.5c-20.7 0-37.6-16.9-37.6-37.6v-55.2c0-20.7 16.9-37.6 37.6-37.6 20.7 0 37.6 16.9 37.6 37.6v55.2c0 20.7-16.9 37.6-37.6 37.6z m0-110.4c-9.7 0-17.6 7.9-17.6 17.6v55.2c0 9.7 7.9 17.6 17.6 17.6 9.7 0 17.6-7.9 17.6-17.6v-55.2c0-9.7-7.9-17.6-17.6-17.6z" fill="#00B794" p-id="112642"></path></svg>