<?xml version="1.0" standalone="no"?><!DOCTYPE svg PUBLIC "-//W3C//DTD SVG 1.1//EN" "http://www.w3.org/Graphics/SVG/1.1/DTD/svg11.dtd"><svg t="1772760662613" class="icon" viewBox="0 0 1024 1024" version="1.1" xmlns="http://www.w3.org/2000/svg" p-id="163403" xmlns:xlink="http://www.w3.org/1999/xlink" width="200" height="200"><path d="M34.133333 34.133333m204.8 0l546.133334 0q204.8 0 204.8 204.8l0 546.133334q0 204.8-204.8 204.8l-546.133334 0q-204.8 0-204.8-204.8l0-546.133334q0-204.8 204.8-204.8Z" fill="#30C694" p-id="163404"></path><path d="M238.933333 34.133333h530.363734c52.087467 3.413333 84.104533 13.994667 96.1536 31.709867 90.112 132.881067 52.974933 362.734933-25.258667 534.186667-52.155733 114.312533-186.504533 244.258133-403.012267 389.8368H238.933333a204.8 204.8 0 0 1-204.8-204.8V238.933333a204.8 204.8 0 0 1 204.8-204.8z" fill="#3ACC97" p-id="163405"></path><path d="M238.933333 34.133333h530.363734c-8.430933 181.691733-81.066667 340.992-217.975467 477.866667-136.874667 136.874667-309.282133 222.651733-517.188267 257.3312V238.933333a204.8 204.8 0 0 1 204.8-204.8z" fill="#44D39C" p-id="163406"></path><path d="M238.933333 34.133333h236.305067c-10.581333 98.372267-56.2176 187.904-136.942933 268.629334C257.570133 383.488 156.16 441.002667 34.133333 475.2384V238.933333a204.8 204.8 0 0 1 204.8-204.8z" fill="#4ED89D" p-id="163407"></path><path d="M388.437333 816.605867a183.296 183.296 0 0 1-129.774933-313.0368l81.578667-81.6128a29.627733 29.627733 0 0 1 41.8816 41.847466l-81.408 81.578667a124.3136 124.3136 0 1 0 175.786666 175.854933l81.6128-81.578666a29.627733 29.627733 0 0 1 41.8816 41.813333l-81.6128 81.6128a182.8864 182.8864 0 0 1-129.9456 53.521067z m272.110934-208.145067a29.627733 29.627733 0 0 1-20.821334-50.449067l81.408-81.783466a124.3136 124.3136 0 0 0-175.786666-175.8208l-81.6128 81.578666a29.627733 29.627733 0 0 1-41.8816-41.847466l81.6128-81.578667a183.5008 183.5008 0 0 1 259.549866 259.515733l-81.6128 81.578667a29.422933 29.422933 0 0 1-20.821333 8.8064z" fill="#FFFFFF" fill-opacity=".678" p-id="163408"></path><path d="M442.88 628.155733a49.322667 49.322667 0 0 1-34.781867-84.0704l136.0896-136.0896a49.322667 49.322667 0 1 1 69.7344 69.768534L477.866667 613.819733a49.152 49.152 0 0 1-34.986667 14.336z" fill="#FFFFFF" p-id="163409"></path></svg>