<?xml version="1.0" standalone="no"?><!DOCTYPE svg PUBLIC "-//W3C//DTD SVG 1.1//EN" "http://www.w3.org/Graphics/SVG/1.1/DTD/svg11.dtd"><svg t="1772757263497" class="icon" viewBox="0 0 1024 1024" version="1.1" xmlns="http://www.w3.org/2000/svg" p-id="131686" xmlns:xlink="http://www.w3.org/1999/xlink" width="200" height="200"><path d="M440.17 475.41H863a94.49 94.49 0 0 1 94.49 94.49v248A94.49 94.49 0 0 1 863 912.41H440.17a94.49 94.49 0 0 1-94.49-94.49v-248a94.49 94.49 0 0 1 94.49-94.51z" fill="#FF9997" p-id="131687"></path><path d="M773.55 912H200.82c-75.92 0-137.46-63.21-137.46-141.19v-353c0-78 61.54-141.19 137.46-141.19h572.73c75.91 0 137.45 63.21 137.45 141.19v353C911 848.79 849.46 912 773.55 912zM200.82 323.69c-50.61 0-91.64 42.14-91.64 94.13v353c0 52 41 94.12 91.64 94.12h572.73c50.6 0 91.63-42.14 91.63-94.12v-353c0-52-41-94.13-91.63-94.13z" fill="#FF5C50" p-id="131688"></path><path d="M309.22 759a141.2 141.2 0 1 1 141.19-141.15A141.19 141.19 0 0 1 309.22 759z m0-235.32a94.13 94.13 0 1 0 94.13 94.13 94.13 94.13 0 0 0-94.13-94.09z m305.92 176.53a23.53 23.53 0 0 1-23.53-23.53V547.25a23.53 23.53 0 0 1 47.06 0v129.43a23.54 23.54 0 0 1-23.53 23.53z m164.72 0a23.54 23.54 0 0 1-23.53-23.53V547.25a23.54 23.54 0 0 1 47.07 0v129.43a23.54 23.54 0 0 1-23.54 23.53z m-82.36 47.06a23.52 23.52 0 0 1-23.5-23.53V500.18a23.53 23.53 0 0 1 47.06 0v223.56a23.52 23.52 0 0 1-23.53 23.53z m35.3-435.34a23.55 23.55 0 0 1-16.59-6.93l-153-153a23.46 23.46 0 1 1 33.18-33.18l153 153a23.54 23.54 0 0 1-16.59 40.13z" fill="#FF5C50" p-id="131689"></path></svg>