<?xml version="1.0" standalone="no"?><!DOCTYPE svg PUBLIC "-//W3C//DTD SVG 1.1//EN" "http://www.w3.org/Graphics/SVG/1.1/DTD/svg11.dtd"><svg t="1772569202076" class="icon" viewBox="0 0 1024 1024" version="1.1" xmlns="http://www.w3.org/2000/svg" p-id="66802" xmlns:xlink="http://www.w3.org/1999/xlink" width="200" height="200"><path d="M624.128 87.296l-473.6 34.816c-38.1952 3.328-51.5072 28.2112-51.5072 58.0608v517.632c0 23.2448 8.2944 43.1104 28.2112 69.6832L238.592 911.872c18.2784 23.2448 34.8672 28.2112 69.8368 26.5728l549.9392-33.1776c46.5408-3.328 59.8528-24.8832 59.8528-61.44V261.5296c0-18.8928-7.4752-24.32-29.4912-40.448l-3.7888-2.6624-151.1936-106.1888c-36.5568-26.5216-51.5072-29.9008-109.6704-24.8832zM320.8192 251.904c-44.9024 3.0208-55.0912 3.6864-80.64-16.9984L175.4112 183.552c-6.656-6.656-3.2768-15.0016 13.312-16.64l455.3216-33.1776c38.1952-3.328 58.112 9.984 73.0624 21.5552l78.1312 56.4736c3.328 1.6384 11.6224 11.5712 1.6384 11.5712l-470.2208 28.16-5.7856 0.4608zM268.4928 838.8608V344.4736c0-21.6064 6.656-31.5392 26.5728-33.2288l540.0064-31.5392c18.3296-1.6384 26.624 9.984 26.624 31.5392v491.0592c0 21.6064-3.328 39.8336-33.28 41.472l-516.7616 29.9008c-29.8496 1.6384-43.1616-8.2944-43.1616-34.816z m510.1568-467.8656c3.328 14.8992 0 29.8496-15.0016 31.5392l-24.8832 4.9152v365.056c-21.6576 11.5712-41.5744 18.2272-58.1632 18.2272-26.624 0-33.28-8.3456-53.1968-33.1776l-162.8672-255.488v247.1936l51.5584 11.6224s0 29.8496-41.6256 29.8496l-114.5856 6.656c-3.328-6.656 0-23.2448 11.6224-26.5728l29.9008-8.2944V435.712l-41.5232-3.328c-3.328-14.9504 4.9664-36.5056 28.2624-38.144l122.9312-8.3456 169.5232 258.8672V415.744l-43.2128-4.9664c-3.328-18.2784 9.9328-31.5392 26.5728-33.1776l114.688-6.656z" fill="#000000" p-id="66803"></path></svg>