<?xml version="1.0" standalone="no"?><!DOCTYPE svg PUBLIC "-//W3C//DTD SVG 1.1//EN" "http://www.w3.org/Graphics/SVG/1.1/DTD/svg11.dtd"><svg t="1772667561639" class="icon" viewBox="0 0 1024 1024" version="1.1" xmlns="http://www.w3.org/2000/svg" p-id="13817" xmlns:xlink="http://www.w3.org/1999/xlink" width="200" height="200"><path d="M512 512m-512 0a512 512 0 1 0 1024 0 512 512 0 1 0-1024 0Z" fill="#C7B3FF" p-id="13818"></path><path d="M512 477.323636m-99.141818 0a99.141818 99.141818 0 1 0 198.283636 0 99.141818 99.141818 0 1 0-198.283636 0Z" fill="#8554EF" p-id="13819"></path><path d="M631.156364 656.290909c0-32.814545-53.294545-59.578182-119.156364-59.578182s-119.156364 26.763636-119.156364 59.578182a30.72 30.72 0 0 0 0 6.981818l28.392728 212.247273A90.763636 90.763636 0 0 0 512 954.181818a90.763636 90.763636 0 0 0 89.832727-78.661818l28.392728-212.247273a30.72 30.72 0 0 0 0.930909-6.981818z" fill="#8554EF" p-id="13820"></path><path d="M512 116.363636a360.96 360.96 0 0 0-133.585455 696.087273L372.363636 758.225455a314.181818 314.181818 0 1 1 281.6 0l-7.214545 54.225454A360.96 360.96 0 0 0 512 116.363636z" fill="#8554EF" p-id="13821"></path><path d="M512 235.52a241.803636 241.803636 0 0 0-153.134545 428.683636 63.767273 63.767273 0 0 1 0-8.145454 69.818182 69.818182 0 0 1 13.498181-42.123637 195.025455 195.025455 0 1 1 279.272728 0 69.818182 69.818182 0 0 1 14.894545 42.356364 63.767273 63.767273 0 0 1 0 8.145455A241.803636 241.803636 0 0 0 512 235.52z" fill="#8554EF" p-id="13822"></path></svg>