<?xml version="1.0" standalone="no"?><!DOCTYPE svg PUBLIC "-//W3C//DTD SVG 1.1//EN" "http://www.w3.org/Graphics/SVG/1.1/DTD/svg11.dtd"><svg t="1772487509900" class="icon" viewBox="0 0 1024 1024" version="1.1" xmlns="http://www.w3.org/2000/svg" p-id="59344" xmlns:xlink="http://www.w3.org/1999/xlink" width="200" height="200"><path d="M896 0a64 64 0 0 1 64 64v629.696a25.6 25.6 0 0 1-7.488 18.048l-14.528 14.528a246.016 246.016 0 1 0-275.84 275.648l-14.656 14.592a25.6 25.6 0 0 1-18.112 7.488H128a64 64 0 0 1-64-64V64a64 64 0 0 1 64-64h768zM416 384h-128a32 32 0 0 0-5.76 63.488L288 448h128a32 32 0 0 0 5.76-63.488L416 384z m192-192h-320a32 32 0 0 0-5.76 63.488L288 256h320a32 32 0 0 0 5.76-63.488L608 192z" fill="#3699FF" p-id="59345"></path><path d="M886.592 911.04l64.64 64.64a27.968 27.968 0 1 1-39.616 39.552l-64.64-64.576c14.72-11.648 27.968-24.96 39.68-39.68zM693.952 576a182.016 182.016 0 1 1 0 363.968 182.016 182.016 0 0 1 0-363.968z" fill="#3699FF" opacity=".32" p-id="59346"></path></svg>