<?xml version="1.0" standalone="no"?><!DOCTYPE svg PUBLIC "-//W3C//DTD SVG 1.1//EN" "http://www.w3.org/Graphics/SVG/1.1/DTD/svg11.dtd"><svg t="1772682703946" class="icon" viewBox="0 0 1024 1024" version="1.1" xmlns="http://www.w3.org/2000/svg" p-id="79477" xmlns:xlink="http://www.w3.org/1999/xlink" width="200" height="200"><path d="M681.258667 210.090667a88.1024 88.1024 0 0 1-88.021334-87.978667V0H200.149333A114.816 114.816 0 0 0 85.333333 114.816v692.138667A114.816 114.816 0 0 0 200.149333 921.6h471.893334a114.811733 114.811733 0 0 0 114.816-114.816V210.090667h-105.6z" fill="#FF9908" opacity=".3" p-id="79478"></path><path d="M786.858667 210.090667h-105.6a88.106667 88.106667 0 0 1-88.021334-87.978667V0l193.621334 210.090667zM870.144 727.893333H336.64c-37.845333 0-68.522667 30.677333-68.522667 68.522667v159.061333c0 37.845333 30.677333 68.522667 68.522667 68.522667h533.504c37.845333 0 68.522667-30.677333 68.522667-68.522667v-159.061333c0-37.845333-30.677333-68.522667-68.522667-68.522667z" fill="#FF9908" p-id="79479"></path><path d="M451.84 910.378667v31.018666h-32.128v-31.018666h32.128zM533.930667 941.397333l-27.776-48.469333h-7.082667v48.469333H468.053333v-128.298666h53.077334a57.301333 57.301333 0 0 1 25.6 5.248 36.608 36.608 0 0 1 15.786666 14.421333 41.5616 41.5616 0 0 1 5.248 20.992 37.376 37.376 0 0 1-7.68 23.765333 39.637333 39.637333 0 0 1-22.442666 13.44l30.506666 50.432h-34.218666z m-34.858667-69.674666h19.242667a19.285333 19.285333 0 0 0 13.610666-4.266667 15.790933 15.790933 0 0 0 4.266667-12.074667 15.829333 15.829333 0 0 0-4.266667-11.946666 18.432 18.432 0 0 0-13.525333-4.266667h-19.242667l-0.085333 32.554667zM670.464 923.989333a36.693333 36.693333 0 0 1-15.274667 13.610667 53.883733 53.883733 0 0 1-24.405333 5.077333 57.258667 57.258667 0 0 1-35.541333-10.538666 38.058667 38.058667 0 0 1-15.274667-29.397334h33.024a17.408 17.408 0 0 0 5.205333 11.434667 15.872 15.872 0 0 0 11.306667 4.266667 13.269333 13.269333 0 0 0 9.472-3.285334 11.52 11.52 0 0 0 3.413333-8.533333 11.178667 11.178667 0 0 0-3.157333-8.149333 25.301333 25.301333 0 0 0-7.893333-5.376c-3.157333-1.365333-7.509333-3.029333-13.056-4.992a160.413867 160.413867 0 0 1-19.882667-8.064 36.731733 36.731733 0 0 1-13.226667-11.605334 33.493333 33.493333 0 0 1-5.546666-20.053333 33.749333 33.749333 0 0 1 5.802666-19.797333 37.290667 37.290667 0 0 1 16.042667-12.8 58.922667 58.922667 0 0 1 23.509333-4.266667 52.906667 52.906667 0 0 1 34.133334 10.154667 38.954667 38.954667 0 0 1 14.250666 27.946666h-33.578666a17.493333 17.493333 0 0 0-4.650667-10.069333 13.610667 13.610667 0 0 0-10.069333-3.712 12.8 12.8 0 0 0-8.789334 2.901333 10.624 10.624 0 0 0-3.370666 8.533334 11.008 11.008 0 0 0 2.986666 7.722666 23.210667 23.210667 0 0 0 7.552 5.162667c3.029333 1.322667 7.381333 3.029333 13.056 5.077333a140.8384 140.8384 0 0 1 20.138667 8.277334 38.4 38.4 0 0 1 13.44 11.861333 34.133333 34.133333 0 0 1 5.632 20.352 35.84 35.84 0 0 1-5.248 18.261333zM779.818667 923.989333a36.821333 36.821333 0 0 1-15.232 13.610667 53.883733 53.883733 0 0 1-24.405334 5.077333 57.386667 57.386667 0 0 1-35.584-10.538666 38.144 38.144 0 0 1-15.232-29.397334h33.024a17.365333 17.365333 0 0 0 5.162667 11.434667 16 16 0 0 0 11.349333 4.266667 13.141333 13.141333 0 0 0 9.429334-3.285334 11.396267 11.396267 0 0 0 3.456-8.533333 11.349333 11.349333 0 0 0-3.157334-8.149333 25.6128 25.6128 0 0 0-7.893333-5.376c-3.157333-1.365333-7.509333-3.029333-13.098667-4.992a156.7616 156.7616 0 0 1-19.84-8.064 36.864 36.864 0 0 1-13.269333-11.605334 33.792 33.792 0 0 1-5.504-20.053333 33.749333 33.749333 0 0 1 5.802667-19.797333 37.034667 37.034667 0 0 1 16.042666-12.8 58.922667 58.922667 0 0 1 23.509334-4.266667 52.864 52.864 0 0 1 34.133333 10.154667 38.784 38.784 0 0 1 14.250667 27.946666h-33.578667a17.066667 17.066667 0 0 0-4.608-10.069333 13.614933 13.614933 0 0 0-10.069333-3.712 12.8 12.8 0 0 0-8.789334 2.901333 10.624 10.624 0 0 0-3.370666 8.533334 10.837333 10.837333 0 0 0 2.986666 7.722666 23.202133 23.202133 0 0 0 7.552 5.162667c2.986667 1.322667 7.338667 3.029333 13.056 5.077333 6.912 2.235733 13.649067 5.000533 20.138667 8.277334a38.4 38.4 0 0 1 13.44 11.861333 34.133333 34.133333 0 0 1 5.632 20.352 35.498667 35.498667 0 0 1-5.333333 18.261333z" fill="#FFFFFF" p-id="79480"></path><path d="M332.202667 595.669333a30.933333 30.933333 0 1 0 0-61.866666 30.933333 30.933333 0 0 0 0 61.866666zM301.269333 413.866667v40.32a141.696 141.696 0 0 1 141.525334 141.525333h40.32A182.058667 182.058667 0 0 0 301.269333 413.866667z" fill="#FF9908" p-id="79481"></path><path d="M570.922667 595.669333h-40.32a229.589333 229.589333 0 0 0-229.333334-229.333333v-40.32a269.952 269.952 0 0 1 269.653334 269.653333z" fill="#FF9908" p-id="79482"></path></svg>