<?xml version="1.0" standalone="no"?><!DOCTYPE svg PUBLIC "-//W3C//DTD SVG 1.1//EN" "http://www.w3.org/Graphics/SVG/1.1/DTD/svg11.dtd"><svg t="1772673904554" class="icon" viewBox="0 0 1024 1024" version="1.1" xmlns="http://www.w3.org/2000/svg" p-id="62095" xmlns:xlink="http://www.w3.org/1999/xlink" width="200" height="200"><path d="M844.580202 133.171717H178.178586C151.893333 133.171717 130.585859 159.314747 130.585859 191.573333v608.840404l82.540606 91.966061h631.453737c26.285253 0 47.592727-26.14303 47.592727-58.401616V191.573333c0-32.258586-21.307475-58.401616-47.592727-58.401616z m0 0" fill="#3678BF" p-id="62096"></path><path d="M159.702626 196.486465h42.05899v58.737777H159.702626z" fill="#707272" p-id="62097"></path><path d="M161.771313 221.039192h37.921616v31.81899H161.771313z" fill="#A5A5A5" p-id="62098"></path><path d="M248.656162 351.172525v162.443637c0 14.946263 8.934141 27.073939 19.949899 27.073939h518.645656c11.015758 0 19.949899-12.127677 19.949899-27.073939V351.172525h-558.545454z m542.008889 527.101414V665.186263c0-19.613737-8.119596-35.529697-18.139798-35.529697H300.851717c-10.020202 0-18.152727 15.91596-18.152727 35.529697v213.087676h507.966061z m0 0" fill="#245B8E" p-id="62099"></path><path d="M685.149091 878.273939V674.042828c0-18.786263-6.335354-34.042828-14.131717-34.042828H303.72202c-7.809293 0-14.131717 15.256566-14.131717 34.042828v204.231111h395.558788z m0 0" fill="#EAEAEA" p-id="62100"></path><path d="M433.19596 828.250505V682.860606c0-13.381818-1.680808-24.242424-3.736566-24.242424h-97.034343c-2.055758 0-3.723636 10.860606-3.723637 24.242424V828.250505h104.494546z m0 0" fill="#A5A5A5" p-id="62101"></path><path d="M429.472323 658.618182h-23.156363v142.054141h-77.601617v27.578182h104.494546V682.860606c-0.012929-13.381818-1.680808-24.242424-3.736566-24.242424z m0 0" fill="#878787" p-id="62102"></path><path d="M288.55596 359.460202v128.866263c0 17.777778 17.842424 32.232727 39.886868 32.232727H727.40202c22.031515 0 39.899798-14.44202 39.899798-32.232727v-128.866263H288.55596z m0 0" fill="#EAEAEA" p-id="62103"></path><path d="M248.656162 140.98101V373.656566c0 21.423838 8.934141 38.787879 19.949899 38.787878h518.645656c11.015758 0 19.949899-17.36404 19.949899-38.787878V140.98101h-558.545454z m0 0" fill="#245B8E" p-id="62104"></path><path d="M288.55596 140.98101v265.14101c0 36.602828 17.842424 66.301414 39.886868 66.301414H727.40202c22.031515 0 39.899798-29.698586 39.899798-66.301414V140.98101H288.55596z m0 0" fill="#EAEAEA" p-id="62105"></path><path d="M316.922828 240.226263h422.012121v6.955959h-422.012121v-6.955959z m-3.193535 51.419798h422.012121v6.955959h-422.012121v-6.955959z m0 51.432727h422.012121v6.955959h-422.012121v-6.955959z m0 51.432727h422.012121v6.94303h-422.012121v-6.94303z m0 51.432727h422.012121v6.95596h-422.012121v-6.95596z m0 0" fill="#ACB8BC" p-id="62106"></path></svg>