<?xml version="1.0" standalone="no"?><!DOCTYPE svg PUBLIC "-//W3C//DTD SVG 1.1//EN" "http://www.w3.org/Graphics/SVG/1.1/DTD/svg11.dtd"><svg t="1772767540077" class="icon" viewBox="0 0 1024 1024" version="1.1" xmlns="http://www.w3.org/2000/svg" p-id="224888" xmlns:xlink="http://www.w3.org/1999/xlink" width="200" height="200"><path d="M102.4 332.8h819.2v483.4816A105.3184 105.3184 0 0 1 816.2816 921.6H207.7184A105.3184 105.3184 0 0 1 102.4 816.2816V332.8z" fill="#FA6910" p-id="224889"></path><path d="M742.4 780.1344l-11.1616 7.3728a71.68 71.68 0 0 1-12.9536 6.4 82.176 82.176 0 0 1-69.5808-3.1744l-2.3552-1.3824a142.0288 142.0288 0 0 1-19.7632-14.7456l-20.3776-17.5104-25.856-23.3472a2540.8 2540.8 0 0 1-40.0896-37.888l-14.336-13.9776-15.872 15.9232 2.6624 6.5024a91.136 91.136 0 0 1-11.4688 86.784l-4.864 6.144-5.0176 5.4272c-37.376 37.5808-94.3104 39.5776-130.816 2.9184a95.5904 95.5904 0 0 1 0-134.656 94.0544 94.0544 0 0 1 86.3744-25.8048l7.2704 1.8432 18.176-18.8416-18.3296-18.8416a93.5936 93.5936 0 0 1-81.7152-14.0288l-6.2976-4.9664-5.4784-5.12a96.0512 96.0512 0 0 1 0.2048-135.0144 93.4912 93.4912 0 0 1 133.12 0.1536c25.2928 25.3952 34.816 57.0368 25.9584 88.7296l-2.2016 6.8096-2.4576 6.0416 15.0528 15.104 39.8336-39.424c39.168-38.144 61.7984-58.0096 75.6224-65.1776a82.8416 82.8416 0 0 1 77.4656-0.8192l2.048 1.1776 11.52 7.2704-151.5008 152.2176 157.184 157.9008z m-287.232-69.5808a39.168 39.168 0 1 0-55.5008 55.3472 39.168 39.168 0 0 0 55.5008-55.296z m0-220.3136a39.1168 39.1168 0 1 0-55.4496 55.3984 39.0656 39.0656 0 0 0 51.456 3.4816l3.9936-3.5328a39.2704 39.2704 0 0 0 0-55.3472z m81.1008 129.024a10.0352 10.0352 0 0 0-14.1824 0 9.8816 9.8816 0 0 0 0 13.8752 10.0352 10.0352 0 0 0 14.1824 0 9.8816 9.8816 0 0 0 0-13.9264z" fill="#FFFFFF" p-id="224890"></path><path d="M816.2816 102.4C874.4448 102.4 921.6 149.5552 921.6 207.7184V271.36h-172.1344l44.9536-168.96h21.8624zM283.8528 102.4l-44.9024 168.96H102.4V207.7184C102.4 149.5552 149.5552 102.4 207.7184 102.4h76.1344z m221.5936 0l-44.9536 168.96h-154.112L351.232 102.4h154.1632z m176.64 168.96H527.872l44.9536-168.96h154.112l-44.9024 168.96z" fill="#FAB90B" p-id="224891"></path></svg>