<?xml version="1.0" standalone="no"?><!DOCTYPE svg PUBLIC "-//W3C//DTD SVG 1.1//EN" "http://www.w3.org/Graphics/SVG/1.1/DTD/svg11.dtd"><svg t="1772751903848" class="icon" viewBox="0 0 1024 1024" version="1.1" xmlns="http://www.w3.org/2000/svg" p-id="58069" xmlns:xlink="http://www.w3.org/1999/xlink" width="200" height="200"><path d="M463.984 16h544v992h-544z" fill="#94C1FF" p-id="58070"></path><path d="M464 16h256v240H464zM976 16h32v240h-32zM720 768h256v240H720zM720 256h256v255.968H720zM464 512.032h256V768H464zM976 512.032h31.984V768H976z" fill="#D7E9FF" p-id="58071"></path><path d="M234.544 245.44a127.712 127.712 0 0 1 0 180.944c-12 12-25.76 21.12-40.48 27.36a127.632 127.632 0 0 1-140.48-27.36c-50.08-49.904-50.08-130.88 0-180.96 49.92-49.904 131.04-49.904 180.96 0.016z m-45.28 135.84a64.128 64.128 0 0 0 0-90.56 63.904 63.904 0 0 0-90.4 0 64.128 64.128 0 0 0 0 90.56 63.936 63.936 0 0 0 90.4 0z" fill="#94C1FF" p-id="58072"></path><path d="M320.144 580l-58.24 58.08c-6.256-14.72-15.36-28.64-27.36-40.64s-25.92-21.12-40.64-27.2l0.16-0.16 58.08-58.08 68-67.84 143.84-144 72.16-72.16a95.872 95.872 0 0 1 135.84 0L387.984 512l-67.84 68z" fill="#FFFFFF" p-id="58073"></path><path d="M463.984 588.16v135.68l-143.84-143.84 67.84-68zM320.144 444.16L252.144 512l-58.08-58.256c14.72-6.24 28.48-15.36 40.48-27.36s21.104-25.744 27.36-40.464l58.24 58.24z" fill="#FFFFFF" p-id="58074"></path><path d="M261.904 638.08a128.32 128.32 0 0 1-27.36 140.48c-49.92 49.92-131.04 49.92-180.976 0a127.952 127.952 0 0 1 0-181.12 127.648 127.648 0 0 1 140.336-27.2c14.72 6.08 28.64 15.2 40.64 27.2s21.12 25.92 27.36 40.64z m-72.64 95.2a64.128 64.128 0 0 0 0-90.56 64.096 64.096 0 0 0-90.56 0 64.128 64.128 0 0 0 0 90.56 64.128 64.128 0 0 0 90.56 0z" fill="#94C1FF" p-id="58075"></path><path d="M144 480.016a143.088 143.088 0 0 1-101.84-42.176c-56.128-56.144-56.128-147.504 0-203.648 27.2-27.2 63.376-42.176 101.84-42.176s74.624 14.976 101.808 42.176A143.04 143.04 0 0 1 288 336a143.04 143.04 0 0 1-42.192 101.824A142.944 142.944 0 0 1 144 480.016z m0-255.984c-29.92 0-58.064 11.648-79.216 32.8a112.128 112.128 0 0 0 0 158.384c21.152 21.152 49.296 32.8 79.216 32.8s58.048-11.648 79.184-32.8A111.28 111.28 0 0 0 256 336.016a111.28 111.28 0 0 0-32.816-79.184A111.136 111.136 0 0 0 144 224.032z" fill="#116FFF" p-id="58076"></path><path d="M144 416.016a79.488 79.488 0 0 1-56.56-23.424 80.096 80.096 0 0 1 0-113.136c15.088-15.104 35.184-23.408 56.56-23.408s41.472 8.32 56.56 23.408a80.096 80.096 0 0 1 0 113.136A79.488 79.488 0 0 1 144 416.016z m0-127.968c-12.832 0-24.88 4.992-33.936 14.032a48.048 48.048 0 0 0 0 67.888c18.128 18.096 49.744 18.096 67.872 0a48.048 48.048 0 0 0 0-67.888A47.648 47.648 0 0 0 144 288.048zM463.984 739.904a15.952 15.952 0 0 1-11.312-4.688l-144.048-144.064a15.984 15.984 0 1 1 22.624-22.624l144.048 144.064a15.984 15.984 0 0 1-11.312 27.312zM252.128 528.032a15.952 15.952 0 0 1-11.312-4.688l-58.16-58.144a15.984 15.984 0 1 1 22.624-22.624l58.16 58.144a15.984 15.984 0 0 1-11.312 27.312zM464 604.16a15.952 15.952 0 0 1-11.312-4.688l-76.128-76.128a15.984 15.984 0 1 1 22.624-22.624l76.128 76.128A15.984 15.984 0 0 1 464 604.16zM320.064 460.208a15.952 15.952 0 0 1-11.312-4.688l-58.224-58.208a15.984 15.984 0 1 1 22.624-22.624l58.224 58.208a15.984 15.984 0 0 1-11.312 27.312zM143.984 832.032a143.088 143.088 0 0 1-101.824-42.176c-56.144-56.144-56.144-147.488 0-203.648 27.2-27.2 63.376-42.176 101.824-42.176s74.624 14.976 101.824 42.176c56.144 56.16 56.144 147.504 0 203.648a143.088 143.088 0 0 1-101.824 42.176z m0-255.984c-29.92 0-58.048 11.648-79.2 32.8-43.664 43.664-43.664 114.736 0 158.384 21.152 21.152 49.28 32.8 79.2 32.8s58.048-11.648 79.2-32.8a112.128 112.128 0 0 0 0-158.384 111.2 111.2 0 0 0-79.2-32.8z" fill="#116FFF" p-id="58077"></path><path d="M143.984 768.016a79.488 79.488 0 0 1-56.576-23.408 80.08 80.08 0 0 1 0-113.12 79.44 79.44 0 0 1 56.576-23.424c21.376 0 41.488 8.32 56.576 23.424a80.08 80.08 0 0 1 0 113.12 79.488 79.488 0 0 1-56.576 23.408z m0-127.952c-12.848 0-24.912 4.992-33.952 14.048a48.032 48.032 0 0 0 0 67.872c18.128 18.096 49.776 18.096 67.904 0a48.032 48.032 0 0 0 0-67.872 47.648 47.648 0 0 0-33.952-14.048zM193.968 586.176a15.984 15.984 0 0 1-11.312-27.312l342.16-342.144a15.984 15.984 0 1 1 22.624 22.624L205.28 581.488a15.952 15.952 0 0 1-11.312 4.688zM261.84 654.064a15.984 15.984 0 0 1-11.312-27.312l410.032-410.032a15.984 15.984 0 1 1 22.624 22.624L273.152 649.376a15.952 15.952 0 0 1-11.312 4.688z" fill="#116FFF" p-id="58078"></path><path d="M671.872 244.032a15.952 15.952 0 0 1-11.312-4.688 79.52 79.52 0 0 0-56.576-23.456 79.456 79.456 0 0 0-56.544 23.456 15.984 15.984 0 1 1-22.624-22.624 111.216 111.216 0 0 1 79.168-32.832c29.904 0 58.032 11.664 79.2 32.832a15.984 15.984 0 0 1-11.312 27.312zM464 316.16a16 16 0 0 1-16-16V16a16 16 0 1 1 32 0v284.16a16 16 0 0 1-16 16zM976 1024a16 16 0 0 1-16-16V16a16 16 0 1 1 32 0v992a16 16 0 0 1-16 16z" fill="#116FFF" p-id="58079"></path><path d="M1008 32H464a16 16 0 1 1 0-32h544a16 16 0 1 1 0 32zM1008 272H643.904a16 16 0 1 1 0-32H1008a16 16 0 1 1 0 32zM1008 528H464a16 16 0 1 1 0-32h544a16 16 0 1 1 0 32zM1008 784H464a16 16 0 1 1 0-32h544a16 16 0 1 1 0 32z" fill="#116FFF" p-id="58080"></path><path d="M464 1024a16 16 0 0 1-16-16V435.92a16 16 0 1 1 32 0V1008a16 16 0 0 1-16 16z" fill="#116FFF" p-id="58081"></path><path d="M1008 1024H464a16 16 0 1 1 0-32h544a16 16 0 1 1 0 32z" fill="#116FFF" p-id="58082"></path><path d="M720 1024a16 16 0 0 1-16-16V16a16 16 0 1 1 32 0v992a16 16 0 0 1-16 16z" fill="#116FFF" p-id="58083"></path><path d="M320.544 524.208c-8.848 0-16.08-7.152-16.08-16s7.072-16 15.904-16h0.176a16 16 0 1 1 0 32z" fill="#116FFF" p-id="58084"></path></svg>