<?xml version="1.0" standalone="no"?><!DOCTYPE svg PUBLIC "-//W3C//DTD SVG 1.1//EN" "http://www.w3.org/Graphics/SVG/1.1/DTD/svg11.dtd"><svg t="1772400258746" class="icon" viewBox="0 0 1024 1024" version="1.1" xmlns="http://www.w3.org/2000/svg" p-id="3457" xmlns:xlink="http://www.w3.org/1999/xlink" width="200" height="200"><path d="M896.170667 229.546667H523.662222l-38.798222 150.016-13.909333 98.588444 74.609777 208.128 12.003556 252.529778h338.631111a56.718222 56.718222 0 0 0 56.718222-56.718222V286.264889a56.718222 56.718222 0 0 0-56.718222-56.718222z" fill="#E6E6E6" p-id="3458"></path><path d="M706.076444 780.657778l-148.536888 158.151111-52.622223-158.151111 21.447111-57.656889z" fill="#3A5BBC" p-id="3459"></path><path d="M879.786667 484.750222v-35.953778h-136.533334V398.506667h-35.982222v50.346666h-123.079111v35.925334h199.594667a790.072889 790.072889 0 0 1-56.803556 99.953777 1544.476444 1544.476444 0 0 1-39.907555-51.797333l-10.524445-14.563555-29.098667 21.105777 10.524445 14.563556c0.853333 1.137778 18.773333 25.770667 47.104 60.785778a1378.986667 1378.986667 0 0 1-73.472 80.867555l25.429333 25.400889a1482.723556 1482.723556 0 0 0 71.338667-78.051555 1441.080889 1441.080889 0 0 0 82.403555 90.453333l12.714667 12.714667 25.400889-25.429334-12.686222-12.686222a1426.204444 1426.204444 0 0 1-85.504-94.378667 809.102222 809.102222 0 0 0 72.675555-128.938666h56.433778z" fill="#808080" p-id="3460"></path><path d="M471.267556 71.395556l52.337777 158.151111 78.563556 237.226666 70.542222 213.191111 33.365333 100.693334H127.800889A56.718222 56.718222 0 0 1 71.111111 723.939556V128.113778c0-31.288889 25.372444-56.689778 56.718222-56.689778h343.438223zM433.777778 264.163556H192.512v334.478222h249.230222v-46.848H247.324444v-101.176889h175.217778v-46.848h-175.217778v-92.728889h186.453334V264.106667z" fill="#518EF8" p-id="3461"></path></svg>