<?xml version="1.0" standalone="no"?><!DOCTYPE svg PUBLIC "-//W3C//DTD SVG 1.1//EN" "http://www.w3.org/Graphics/SVG/1.1/DTD/svg11.dtd"><svg t="1772400690535" class="icon" viewBox="0 0 1024 1024" version="1.1" xmlns="http://www.w3.org/2000/svg" p-id="17508" xmlns:xlink="http://www.w3.org/1999/xlink" width="200" height="200"><path d="M512 0c282.8288 0 512 229.1712 512 512S794.8288 1024 512 1024 0 794.8288 0 512 229.1712 0 512 0z" fill="#FFD79C" p-id="17509"></path><path d="M512 755.3024a38.48192 38.48192 0 0 1-36.4544-50.7904l130.4576-386.4576c5.3248-15.5648 19.8656-26.2144 36.4544-26.2144h0.2048c16.5888 0 31.1296 10.8544 36.2496 26.4192l125.5424 386.4576a38.33856 38.33856 0 1 1-72.9088 23.7568l-33.792-104.0384h-114.2784l-35.2256 104.2432c-5.3248 15.9744-20.2752 26.2144-36.4544 26.2144z m97.4848-207.2576h63.2832l-31.1296-95.6416-32.3584 95.6416zM381.1328 755.3024c-21.2992 0-38.5024-17.2032-38.5024-38.5024v-42.1888a165.6832 165.6832 0 0 1-51.6096-22.528 161.85344 161.85344 0 0 1-50.7904-53.248c-12.6976-21.2992-20.48-45.4656-22.7328-70.0416-1.8432-21.0944 13.7216-39.7312 35.0208-41.5744 21.504-1.8432 39.7312 13.7216 41.5744 35.0208 1.2288 13.1072 5.3248 26.0096 12.0832 37.4784a88.22784 88.22784 0 0 0 64.1024 42.1888c3.6864 0.4096 8.192 1.024 11.264 0.8192 10.0352 0.2048 19.0464-1.4336 27.8528-4.3008a38.48192 38.48192 0 0 1 23.9616 73.1136c-4.5056 1.4336-9.216 2.8672-13.9264 3.8912v41.7792c0 21.2992-17.2032 38.5024-38.5024 38.5024z m12.6976-175.7184c-24.7808 0-47.9232-9.6256-65.536-27.0336-16.9984-16.9984-26.624-39.3216-27.0336-63.488v-125.7472c0-24.7808 9.6256-47.9232 27.2384-65.536 17.408-17.408 40.7552-27.0336 65.536-27.0336s47.9232 9.6256 65.536 27.0336a92.16 92.16 0 0 1 27.0336 65.536v123.6992c0 24.7808-9.6256 47.9232-27.0336 65.536a92.16 92.16 0 0 1-65.536 27.0336z m-15.7696-92.5696c0 4.3008 1.6384 8.192 4.5056 11.0592 5.9392 5.9392 16.384 5.9392 22.3232 0 3.072-3.072 4.7104-6.9632 4.7104-11.0592v-123.6992c0-4.3008-1.6384-8.192-4.7104-11.0592a16.22016 16.22016 0 0 0-22.3232 0c-3.072 3.072-4.7104 6.9632-4.7104 11.0592v123.6992z" fill="#19191E" p-id="17510"></path></svg>