<?xml version="1.0" standalone="no"?><!DOCTYPE svg PUBLIC "-//W3C//DTD SVG 1.1//EN" "http://www.w3.org/Graphics/SVG/1.1/DTD/svg11.dtd"><svg t="1772753844518" class="icon" viewBox="0 0 1024 1024" version="1.1" xmlns="http://www.w3.org/2000/svg" p-id="79281" xmlns:xlink="http://www.w3.org/1999/xlink" width="200" height="200"><path d="M599.466667 81.578667l244.906666 209.92c26.026667 22.272 40.96 54.826667 40.96 89.088V853.333333A117.333333 117.333333 0 0 1 768 970.666667H256A117.333333 117.333333 0 0 1 138.666667 853.333333V170.666667A117.333333 117.333333 0 0 1 256 53.333333h267.093333a117.333333 117.333333 0 0 1 76.373334 28.245334z" fill="#ECEFF1" p-id="79282"></path><path d="M640 373.333333A117.333333 117.333333 0 0 1 522.666667 256V106.666667 53.333333h0.426666a117.333333 117.333333 0 0 1 76.373334 28.245334l244.906666 209.92a117.333333 117.333333 0 0 1 40.746667 81.834666H832 640z" fill="#5E94FF" p-id="79283"></path><path d="M682.666667 800a32 32 0 0 0 0-64H341.333333a32 32 0 1 0 0 64h341.333334zM480 661.333333a32 32 0 0 0 64 0V426.666667a32 32 0 0 0-64 0v234.666666z" fill="#8B98A6" p-id="79284"></path><path d="M361.386667 577.28a32 32 0 0 0 45.226666 0L512 471.893333l105.386667 105.386667a32 32 0 0 0 45.226666-45.226667l-128-128a32 32 0 0 0-45.226666 0l-128 128a32 32 0 0 0 0 45.226667z" fill="#8B98A6" p-id="79285"></path></svg>